<?xml version="1.0" encoding="utf-8"?>
<!-- Generator: Adobe Illustrator 24.3.0, SVG Export Plug-In . SVG Version: 6.00 Build 0)  -->
<svg version="1.1" id="Layer_1" xmlns="http://www.w3.org/2000/svg" xmlns:xlink="http://www.w3.org/1999/xlink" x="0px" y="0px"
	 viewBox="0 0 350 350" enable-background="new 0 0 350 350" xml:space="preserve">
<g>
	<path fill="#2AA9E1" d="M285.784,125.13c-0.06-0.194-0.103-0.392-0.182-0.582c-0.081-0.198-0.197-0.381-0.302-0.568
		c-0.079-0.146-0.143-0.296-0.233-0.433c-0.216-0.321-0.458-0.623-0.732-0.893L201.237,39.55c-0.274-0.27-0.574-0.516-0.892-0.731
		c-0.137-0.088-0.285-0.15-0.426-0.228c-0.188-0.107-0.376-0.223-0.578-0.307c-0.184-0.076-0.378-0.118-0.569-0.177
		c-0.173-0.051-0.338-0.115-0.518-0.153c-0.368-0.071-0.741-0.109-1.117-0.109c-0.009,0-0.013-0.004-0.022-0.004H69.779
		c-3.214,0-5.824,2.607-5.824,5.824v262.672c0,3.216,2.61,5.822,5.824,5.822h210.443c3.218,0,5.822-2.606,5.822-5.822V126.773
		c0-0.381-0.041-0.764-0.113-1.141C285.897,125.46,285.833,125.3,285.784,125.13z M202.938,57.724l63.225,63.227h-63.225V57.724z
		 M274.398,300.512H75.602V49.487h115.69v77.286c0,3.216,2.611,5.824,5.824,5.824h77.282V300.512z"/>
	<path fill="#2AA9E1" d="M113.184,175.166c0,3.216,2.61,5.824,5.825,5.824h104.336c3.22,0,5.823-2.608,5.823-5.824
		c0-3.216-2.602-5.823-5.823-5.823H119.008C115.794,169.343,113.184,171.95,113.184,175.166z"/>
	<path fill="#2AA9E1" d="M211.697,229.537c3.218,0,5.825-2.609,5.825-5.825c0-3.216-2.606-5.822-5.825-5.822h-81.043
		c-3.213,0-5.823,2.606-5.823,5.822c0,3.216,2.61,5.825,5.823,5.825H211.697z"/>
	<path fill="#2AA9E1" d="M223.344,266.436H119.008c-3.214,0-5.825,2.606-5.825,5.822c0,3.217,2.61,5.825,5.825,5.825h104.336
		c3.22,0,5.823-2.608,5.823-5.825C229.166,269.042,226.564,266.436,223.344,266.436z"/>
</g>
</svg>
